HIERARCHY
ROOT Hips
{
  OFFSET 54.1709 86.598 6.3143
  CHANNELS 6 Xposition Yposition Zposition Zrotation Xrotation Yrotation
  JOINT spine
  {
    OFFSET 0 6.84637 0.3937
    CHANNELS 3 Zrotation Xrotation Yrotation
    JOINT spine1
    {
      OFFSET 0 9.49621 0
      CHANNELS 3 Zrotation Xrotation Yrotation
      JOINT spine2
      {
        OFFSET 0 9.09909 0
        CHANNELS 3 Zrotation Xrotation Yrotation
        JOINT Neck
        {
          OFFSET 0 23.3612 1.11378
          CHANNELS 3 Zrotation Xrotation Yrotation
          JOINT Head
          {
            OFFSET 0 7.05802 0
            CHANNELS 3 Zrotation Xrotation Yrotation
            End Site
            {
              OFFSET 0 17.0844 -5.63419
            }
          }
        }
        JOINT RightShoulder
        {
          OFFSET -3.83136 9.82631 -0.533491
          CHANNELS 3 Zrotation Xrotation Yrotation
          JOINT RightArm
          {
            OFFSET 0 12.8881 0
            CHANNELS 3 Zrotation Xrotation Yrotation
            JOINT RightArmRoll
            {
              OFFSET 0 6.50617 0
              CHANNELS 3 Zrotation Xrotation Yrotation
              JOINT RightForeArm
              {
                OFFSET 0 18.9501 0
                CHANNELS 3 Zrotation Xrotation Yrotation
                JOINT RightForeArmRoll
                {
                  OFFSET 0 7.30093 0
                  CHANNELS 3 Zrotation Xrotation Yrotation
                  JOINT RightHand
                  {
                    OFFSET 0 14.6514 0
                    CHANNELS 3 Zrotation Xrotation Yrotation
                    End Site
                    {
                      OFFSET 0 0 0
                    }
                  }
                }
              }
            }
          }
        }
        JOINT LeftShoulder
        {
          OFFSET 3.83136 9.82631 -0.533491
          CHANNELS 3 Zrotation Xrotation Yrotation
          JOINT LeftArm
          {
            OFFSET 0 12.8881 0
            CHANNELS 3 Zrotation Xrotation Yrotation
            JOINT LeftArmRoll
            {
              OFFSET 0 6.50617 0
              CHANNELS 3 Zrotation Xrotation Yrotation
              JOINT LeftForeArm
              {
                OFFSET 0 18.9501 0
                CHANNELS 3 Zrotation Xrotation Yrotation
                JOINT LeftForeArmRoll
                {
                  OFFSET 0 7.30093 0
                  CHANNELS 3 Zrotation Xrotation Yrotation
                  JOINT LeftHand
                  {
                    OFFSET 0 14.6514 0
                    CHANNELS 3 Zrotation Xrotation Yrotation
                    End Site
                    {
                      OFFSET 0 0 0
                    }
                  }
                }
              }
            }
          }
        }
      }
    }
  }
  JOINT RightUpLeg
  {
    OFFSET -6.06837 -1.11278 -0.933477
    CHANNELS 3 Zrotation Xrotation Yrotation
    JOINT RightUpLegRoll
    {
      OFFSET 0 17.1796 0
      CHANNELS 3 Zrotation Xrotation Yrotation
      JOINT RightLeg
      {
        OFFSET 0 -21.2743 0
        CHANNELS 3 Zrotation Xrotation Yrotation
        JOINT RightLegRoll
        {
          OFFSET 0 21.3439 0
          CHANNELS 3 Zrotation Xrotation Yrotation
          JOINT RightFoot
          {
            OFFSET 0 17.7652 0
            CHANNELS 3 Zrotation Xrotation Yrotation
            JOINT RightToeBase
            {
              OFFSET 0 14.8508 0
              CHANNELS 3 Zrotation Xrotation Yrotation
              End Site
              {
                OFFSET 0.0062947 7.19213 -0.829005
              }
            }
          }
        }
      }
    }
  }
  JOINT LeftUpLeg
  {
    OFFSET 6.06837 -1.11278 -0.933477
    CHANNELS 3 Zrotation Xrotation Yrotation
    JOINT LeftUpLegRoll
    {
      OFFSET 0 17.1797 0
      CHANNELS 3 Zrotation Xrotation Yrotation
      JOINT LeftLeg
      {
        OFFSET 0 21.2742 0
        CHANNELS 3 Zrotation Xrotation Yrotation
        JOINT LeftLegRoll
        {
          OFFSET 0 21.5412 0
          CHANNELS 3 Zrotation Xrotation Yrotation
          JOINT LeftFoot
          {
            OFFSET 0 17.5679 0
            CHANNELS 3 Zrotation Xrotation Yrotation
            JOINT LeftToeBase
            {
              OFFSET 0 14.8508 0
              CHANNELS 3 Zrotation Xrotation Yrotation
              End Site
              {
                OFFSET -0.0282102 7.19214 -0.829004
              }
            }
          }
        }
      }
    }
  }
}
MOTION
Frames: 6
Frame Time: 0.00208333
57.2148 80.4325 16.5632 -0.197112 11.0498 -0.360338 1.34261 -2.24509 0.7952 2.71761 -0.471163 1.46809 2.70057 1.17262 1.42288 -21.0865 -10.3906 -7.38746 17.8588 2.4862 -8.25521 52.5918 -6.12653 -3.44452 110.804 20.0008 -9.7529 2.18192e-007 -9.43447e-007 -5.67121e-006 21.2634 17.4873 -1.45869 -9.48977e-008 -1.2928e-006 -3.01178 8.02894 -4.95147 0.697681 -77.4836 -9.68752 6.13054 -96.0402 25.5873 7.22878 4.37514e-006 2.20758e-006 8.15938e-006 -29.4929 29.336 6.67588 1.49543e-005 -1.15e-005 3.00544 -8.02889 -4.95142 -0.697706 173.422 36.3407 5.8762 180 7.01613e-015 179.262 169.169 51.1402 -174.86 1.80235e-007 -4.00295e-006 0.713543 -93.85 83.1485 93.4006 8.13258 25.2337 -3.48606 -177.021 34.8319 -3.89664 4.54188e-006 -4.6773e-006 -0.810481 -11.6137 -50.6658 -5.76397 1.02381e-006 2.82355e-007 -0.581055 107.61 82.2561 -103.506 -8.14168 25.2221 3.48668 
57.2186 80.3614 16.5495 -0.219664 10.9923 -0.344383 1.34454 -2.22398 0.812877 2.72058 -0.428518 1.50264 2.70316 1.21526 1.4574 -20.9939 -10.4544 -7.44133 17.7542 2.49152 -8.29674 52.558 -6.12494 -3.44171 110.94 20.0752 -9.92131 2.18192e-007 -9.43447e-007 -5.67121e-006 21.2549 17.6324 -1.47918 -9.48977e-008 -1.2928e-006 -3.01177 8.02894 -4.95147 0.697681 -77.2955 -9.62758 6.10304 -96.4507 25.7962 7.27607 4.37514e-006 2.20758e-006 8.15938e-006 -29.4762 29.1979 6.65521 1.49543e-005 -1.15e-005 3.00544 -8.02889 -4.95142 -0.697706 173.488 36.361 5.83637 180 7.01612e-015 179.256 169.194 51.2729 -174.861 1.80235e-007 -4.00295e-006 0.724271 -94.3483 83.1469 93.902 8.13265 25.2337 -3.48608 -176.954 34.8785 -4.02372 4.54188e-006 -4.6773e-006 -0.817932 -11.5359 -50.8311 -5.71768 1.02381e-006 2.82355e-007 -0.608183 107.98 82.2549 -103.941 -8.14144 25.2184 3.48689 
57.1818 80.3683 16.5158 -0.243258 10.9357 -0.329063 1.34626 -2.20353 0.830635 2.72302 -0.387184 1.5374 2.70522 1.25658 1.49213 -20.8924 -10.5186 -7.49481 17.6444 2.50319 -8.3383 52.5157 -6.12655 -3.44076 111.086 20.1448 -10.1156 2.18192e-007 -9.43447e-007 -5.67121e-006 21.2462 17.7988 -1.50077 -9.48977e-008 -1.2928e-006 -3.01177 8.02894 -4.95147 0.697681 -77.0896 -9.5679 6.07557 -96.8794 25.9892 7.35989 4.37514e-006 2.20758e-006 8.15938e-006 -29.4469 29.1134 6.64237 1.49543e-005 -1.15e-005 3.00544 -8.02889 -4.95142 -0.697706 173.556 36.375 5.7952 180 7.01611e-015 179.25 169.221 51.3902 -174.864 1.80235e-007 -4.00295e-006 0.734754 -94.776 83.1451 94.3322 8.13272 25.2337 -3.48611 -176.889 34.9204 -4.1501 4.54188e-006 -4.6773e-006 -0.826279 -11.4456 -50.9845 -5.66202 1.02381e-006 2.82355e-007 -0.636628 108.293 82.2558 -104.322 -8.14124 25.2151 3.48714 
57.1812 80.3015 16.5025 -0.267063 10.8803 -0.314397 1.34765 -2.18387 0.848111 2.7247 -0.347446 1.57165 2.70651 1.29631 1.52638 -20.7848 -10.5832 -7.54719 17.5321 2.52175 -8.37934 52.4648 -6.13058 -3.44106 111.24 20.2109 -10.3356 2.18192e-007 -9.43447e-007 -5.67121e-006 21.2365 17.9851 -1.52293 -9.48976e-008 -1.2928e-006 -3.01177 8.02894 -4.95147 0.697681 -76.8688 -9.50943 6.04857 -97.3202 26.1674 7.47927 4.37514e-006 2.20758e-006 8.15938e-006 -29.4062 29.0795 6.63663 1.49543e-005 -1.15e-005 3.00544 -8.02889 -4.95142 -0.697706 173.623 36.3832 5.75431 180 7.0161e-015 179.244 169.249 51.4922 -174.87 1.80235e-007 -4.00295e-006 0.744887 -95.1348 83.1433 94.6927 8.13279 25.2337 -3.48614 -176.825 34.9576 -4.27509 4.54188e-006 -4.6773e-006 -0.835169 -11.3469 -51.125 -5.5996 1.02381e-006 2.82355e-007 -0.665619 108.547 82.2589 -104.646 -8.14109 25.2126 3.48743 
57.1693 80.3236 16.4664 -0.290249 10.8266 -0.300402 1.34856 -2.16514 0.864937 2.72538 -0.309591 1.60469 2.70683 1.33415 1.55942 -20.674 -10.6483 -7.59776 17.4198 2.54773 -8.41931 52.4054 -6.13621 -3.44201 111.402 20.2748 -10.5811 2.18192e-007 -9.43447e-007 -5.67121e-006 21.2252 18.1898 -1.54514 -9.48977e-008 -1.2928e-006 -3.01176 8.02894 -4.95147 0.697681 -76.6362 -9.45312 6.02249 -97.7674 26.3318 7.63328 4.37514e-006 2.20758e-006 8.15938e-006 -29.3554 29.0937 6.63734 1.49543e-005 -1.15e-005 3.00544 -8.02889 -4.95142 -0.697706 173.688 36.3858 5.71533 180 -7.01609e-015 179.238 169.276 51.5794 -174.878 1.80235e-007 -4.00295e-006 0.754563 -95.4265 83.1415 94.9854 8.13286 25.2337 -3.48617 -176.762 34.9899 -4.398 4.54188e-006 -4.6773e-006 -0.844248 -11.244 -51.252 -5.53302 1.02381e-006 2.82355e-007 -0.694384 108.74 82.264 -104.908 -8.14102 25.2115 3.48775 
57.1738 80.2554 16.4369 -0.311986 10.775 -0.287096 1.34888 -2.14748 0.880749 2.72484 -0.273903 1.63582 2.70594 1.36983 1.59058 -20.5627 -10.7139 -7.6458 17.3102 2.58166 -8.45765 52.3371 -6.14265 -3.44304 111.572 20.3376 -10.852 2.18192e-007 -9.43447e-007 -5.67121e-006 21.2116 18.4113 -1.56684 -9.48977e-008 -1.2928e-006 -3.01176 8.02894 -4.95147 0.697681 -76.395 -9.39994 5.99775 -98.2148 26.4835 7.82092 4.37514e-006 2.20758e-006 8.15938e-006 -29.2957 29.1531 6.64385 1.49543e-005 -1.15e-005 3.00544 -8.02889 -4.95142 -0.697706 173.749 36.3831 5.67986 180 7.01608e-015 179.232 169.303 51.6516 -174.888 1.80235e-007 -4.00295e-006 0.763675 -95.653 83.1399 95.2117 8.13292 25.2337 -3.4862 -176.7 35.0171 -4.51814 4.54188e-006 -4.6773e-006 -0.853164 -11.1409 -51.3645 -5.46496 1.02381e-006 2.82355e-007 -0.722153 108.867 82.2711 -105.105 -8.14107 25.2119 3.48812 
